<svg xmlns="http://www.w3.org/2000/svg" width="24" height="24" viewBox="0 0 24 24" fill="none">
  <path d="M9.68 18.8C10.8674 18.8 11.83 17.8374 11.83 16.65C11.83 15.4626 10.8674 14.5 9.68 14.5C8.49259 14.5 7.53 15.4626 7.53 16.65C7.53 17.8374 8.49259 18.8 9.68 18.8Z" stroke="white" stroke-width="1.2" stroke-miterlimit="10" stroke-linecap="round" stroke-linejoin="round"/>
  <path d="M7.53 16.65H4.5" stroke="white" stroke-width="1.2" stroke-miterlimit="10" stroke-linecap="round" stroke-linejoin="round"/>
  <path d="M19.5 16.65H14.17" stroke="white" stroke-width="1.2" stroke-miterlimit="10" stroke-linecap="round" stroke-linejoin="round"/>
  <path d="M14.31 9.8C15.4974 9.8 16.46 8.83741 16.46 7.65C16.46 6.46259 15.4974 5.5 14.31 5.5C13.1226 5.5 12.16 6.46259 12.16 7.65C12.16 8.83741 13.1226 9.8 14.31 9.8Z" stroke="white" stroke-width="1.2" stroke-miterlimit="10" stroke-linecap="round" stroke-linejoin="round"/>
  <path d="M16.47 7.64999H19.5" stroke="white" stroke-width="1.2" stroke-miterlimit="10" stroke-linecap="round" stroke-linejoin="round"/>
  <path d="M4.5 7.64999H9.83" stroke="white" stroke-width="1.2" stroke-miterlimit="10" stroke-linecap="round" stroke-linejoin="round"/>
</svg>