<svg width="50" height="50" viewBox="0 0 50 50" fill="none" xmlns="http://www.w3.org/2000/svg">
<path d="M41.1225 8.87745C35.5358 3.29085 26.4781 3.29085 20.8915 8.87745L19.3897 10.3792C18.7796 10.9894 18.7796 11.9787 19.3897 12.5889C19.9999 13.1991 20.9892 13.1991 21.5994 12.5889L23.1013 11.0872C27.4675 6.72093 34.5465 6.72093 38.9127 11.0872C43.279 15.4534 43.279 22.5325 38.9127 26.8987L37.4111 28.4004C36.8008 29.0106 36.8008 30 37.4111 30.6102C38.0213 31.2204 39.0104 31.2204 39.6206 30.6102L41.1225 29.1083C46.709 23.5219 46.709 14.4641 41.1225 8.87745Z" fill="white"/>
<path d="M12.5889 19.3898C13.1991 20 13.1991 20.9892 12.5889 21.5994L11.0872 23.1013C6.72093 27.4675 6.72093 34.5465 11.0872 38.9128C15.4534 43.279 22.5325 43.279 26.8987 38.9128L28.4004 37.4111C29.0106 36.8009 30 36.8009 30.6102 37.4111C31.2204 38.0211 31.2204 39.0105 30.6102 39.6207L29.1083 41.1225C23.5219 46.709 14.4641 46.709 8.87745 41.1225C3.29085 35.5359 3.29085 26.4782 8.87745 20.8915L10.3792 19.3898C10.9894 18.7796 11.9787 18.7796 12.5889 19.3898Z" fill="white"/>
<path d="M30.61 19.3898C31.2202 20 31.2202 20.9892 30.61 21.5994L21.5994 30.61C20.9892 31.2202 19.9999 31.2202 19.3897 30.61C18.7796 29.9998 18.7796 29.0107 19.3897 28.4005L28.4004 19.3898C29.0106 18.7796 29.9998 18.7796 30.61 19.3898Z" fill="white"/>
</svg>
