<svg xmlns="http://www.w3.org/2000/svg" width="9" height="9" viewBox="0 0 9 9" fill="none">
<path d="M4.07538 1.18294C4.27102 0.868281 4.72898 0.86828 4.92462 1.18294L5.90031 2.7522C5.96915 2.86291 6.0785 2.94236 6.20506 2.97362L7.99903 3.41663C8.35874 3.50546 8.50026 3.941 8.26146 4.2243L7.0705 5.63717C6.98648 5.73685 6.94471 5.8654 6.9541 5.99542L7.08714 7.83848C7.11381 8.20804 6.74332 8.47722 6.40009 8.33765L4.68834 7.64159C4.56758 7.59248 4.43242 7.59248 4.31166 7.64159L2.59991 8.33765C2.25668 8.47722 1.88619 8.20804 1.91286 7.83848L2.0459 5.99542C2.05529 5.8654 2.01352 5.73685 1.9295 5.63717L0.738544 4.2243C0.499743 3.941 0.641259 3.50546 1.00097 3.41663L2.79494 2.97362C2.9215 2.94236 3.03085 2.86291 3.09969 2.7522L4.07538 1.18294Z" fill="url(#paint0_linear_214_455)"/>
<defs>
<linearGradient id="paint0_linear_214_455" x1="6" y1="8.25" x2="3.5" y2="0.500001" gradientUnits="userSpaceOnUse">
<stop stop-color="#F6B663"/>
<stop offset="1" stop-color="#FFF7ED"/>
</linearGradient>
</defs>
</svg>