<svg width="49" height="49" viewBox="0 0 49 49" fill="none" xmlns="http://www.w3.org/2000/svg">
<path d="M29.2862 12.3524C30.3468 12.5023 31.3854 12.7687 32.4116 13.0841C34.2032 13.6358 35.8937 14.4022 37.4837 15.3965C37.5943 15.4651 37.742 15.5087 37.8723 15.5087C39.7398 15.5164 41.6065 15.5137 43.4725 15.5152C43.6228 15.5152 43.7724 15.531 43.9224 15.5395C43.9224 15.5761 43.9278 15.5916 43.9216 15.6001C43.8345 15.7342 43.7462 15.8665 43.6587 16.0002C43.0252 16.9718 42.484 17.988 42.1644 19.1114C42.1297 19.2321 42.1223 19.3331 42.2041 19.4515C43.8665 21.8387 44.397 24.4595 43.7022 27.2846C43.0931 29.7624 41.6728 31.6943 39.5146 33.0622C37.9721 34.0403 36.2681 34.506 34.4476 34.516C33.6827 34.5206 32.9217 34.4177 32.1745 34.2242C30.3541 33.7519 28.7935 32.8443 27.5073 31.4699C27.3377 31.2895 27.1781 31.101 26.9973 30.897C26.3172 31.9106 25.6479 32.9076 24.9625 33.9308C24.2797 32.9107 23.6197 31.9233 22.9612 30.9398C22.9157 30.9637 22.9026 30.9664 22.8937 30.9749C22.8787 30.9873 22.866 31.0023 22.854 31.0166C21.2984 32.8536 19.3415 33.9797 16.9574 34.3564C15.6311 34.5665 14.3176 34.4909 13.0296 34.1359C11.2041 33.6343 9.65275 32.6712 8.3994 31.2502C7.17457 29.8607 6.41277 28.2477 6.12671 26.4137C5.79939 24.702 6.19803 23.0515 6.29749 22.651C6.58587 21.4867 7.0886 20.4176 7.77869 19.4345C7.82727 19.3647 7.84423 19.2414 7.8211 19.1581C7.53967 18.126 7.05467 17.1873 6.48679 16.2882C6.3426 16.0596 6.16988 15.8479 6.01028 15.6286C6.01028 15.6035 6.01028 15.5777 6.01028 15.5522C6.04227 15.5561 6.07389 15.5623 6.10512 15.5623C8.01579 15.563 9.92609 15.5638 11.8368 15.56C11.92 15.56 12.0126 15.5256 12.0835 15.4802C13.4259 14.6189 14.8562 13.9365 16.359 13.4052C17.4427 13.0228 18.5492 12.7244 19.6776 12.5058C20.7702 12.2945 21.8686 12.1457 22.9785 12.0725C25.6846 11.8643 27.8474 12.1507 29.2862 12.3524ZM26.8909 24.9711C26.8909 29.1668 30.2951 32.5945 34.4758 32.5783C38.6722 32.5633 42.061 29.2319 42.058 24.99C42.0549 20.6185 38.5088 17.3322 34.3131 17.4174C30.171 17.5034 26.9287 20.8421 26.8909 24.9711ZM15.5136 17.3885C11.4323 17.353 7.87392 20.7592 7.94524 25.0979C8.01155 29.144 11.3464 32.5741 15.5984 32.5375C19.7559 32.502 23.0977 29.107 23.1054 24.9958C23.1119 20.7719 19.7293 17.3885 15.5136 17.3885ZM15.8898 15.4092C18.1953 15.5499 20.2205 16.3534 21.9314 17.9094C23.6389 19.4623 24.6394 21.3996 25.0029 23.6776C25.3769 21.4265 26.3511 19.5074 28.0266 17.9699C29.7048 16.4309 31.703 15.6232 33.9707 15.4524C31.2797 14.2561 28.4422 13.748 25.5215 13.6917C22.2021 13.6265 18.9733 14.1158 15.8898 15.4092Z" fill="white"/>
<path d="M34.4603 20.1844C37.0569 20.1802 39.1599 22.272 39.1599 24.8659C39.1599 27.4697 37.0927 29.4826 34.6539 29.5755C31.9301 29.68 29.7507 27.5098 29.7515 24.8774C29.7538 22.215 31.9486 20.1405 34.4603 20.1844ZM37.523 24.8774C37.5218 23.185 36.1536 21.8094 34.4727 21.8094C32.7725 21.8094 31.3884 23.1776 31.3815 24.8651C31.3753 26.5452 32.7663 27.9432 34.4507 27.9478C36.1378 27.9543 37.5237 26.5668 37.523 24.8774Z" fill="white"/>
<path d="M15.4133 20.1844C18.0083 20.1817 20.1144 22.2775 20.1079 24.8709C20.1006 27.496 18.0314 29.4649 15.6354 29.574C12.9008 29.6989 10.6944 27.5191 10.6994 24.8725C10.7048 22.1911 12.9147 20.1397 15.4133 20.1844ZM18.4725 24.8671C18.4675 23.1642 17.0903 21.8067 15.3713 21.8098C13.7131 21.8129 12.3237 23.2124 12.3275 24.8767C12.3318 26.5603 13.7197 27.9447 15.4087 27.9494C17.0873 27.9532 18.4767 26.5553 18.4725 24.8671Z" fill="white"/>
<path d="M34.4626 23.3195C35.3231 23.3187 36.0287 24.0246 36.0206 24.8801C36.0121 25.7375 35.3185 26.4322 34.4723 26.4326C33.601 26.4326 32.9005 25.744 32.9024 24.8909C32.904 24.0057 33.5844 23.3202 34.4626 23.3195Z" fill="white"/>
<path d="M15.4052 23.3055C16.2788 23.3048 16.9809 24.0026 16.9843 24.8735C16.9878 25.7371 16.2792 26.4461 15.4098 26.448C14.5197 26.4499 13.833 25.7621 13.8338 24.8673C13.8338 23.9887 14.5189 23.3067 15.4052 23.3055Z" fill="white"/>
</svg>
