<svg width="40" height="40" viewBox="0 0 40 40" fill="none" xmlns="http://www.w3.org/2000/svg">
<circle cx="20" cy="20" r="20" fill="#00CFC3"/>
<path fill-rule="evenodd" clip-rule="evenodd" d="M22 17.2192C22 18.3242 21.105 19.2192 20 19.2192C18.895 19.2192 18 18.3242 18 17.2192C18 16.1142 18.895 15.2192 20 15.2192C21.105 15.2192 22 16.1142 22 17.2192ZM20 28C18.178 28 15 21.01 15 17C15 14.243 17.243 12 20 12C22.757 12 25 14.243 25 17C25 21.01 21.822 28 20 28ZM20 10C16.134 10 13 13.134 13 17C13 20.866 16.134 30 20 30C23.866 30 27 20.866 27 17C27 13.134 23.866 10 20 10Z" fill="white"/>
</svg>
