<svg width="405" height="405" viewBox="0 0 405 405" fill="none" xmlns="http://www.w3.org/2000/svg">
<rect width="405" height="405" rx="202.5" fill="#39414E"/>
<path d="M141.1 231C124.993 237.141 115 245.698 115 255.164C115 273.851 153.951 289 202 289C250.049 289 289 273.851 289 255.164C289 245.698 279.007 237.141 262.9 231M202 173H202.097M260 173C260 212.282 216.5 231 202 260C187.5 231 144 212.282 144 173C144 140.967 169.967 115 202 115C234.032 115 260 140.967 260 173ZM211.667 173C211.667 178.339 207.339 182.667 202 182.667C196.661 182.667 192.333 178.339 192.333 173C192.333 167.661 196.661 163.333 202 163.333C207.339 163.333 211.667 167.661 211.667 173Z" stroke="white" stroke-width="15" stroke-linecap="round" stroke-linejoin="round"/>
</svg>
